<?xml version="1.0" standalone="no"?><!DOCTYPE svg PUBLIC "-//W3C//DTD SVG 1.1//EN" "http://www.w3.org/Graphics/SVG/1.1/DTD/svg11.dtd"><svg xmlns:xlink="http://www.w3.org/1999/xlink" version="1.1" class="highcharts-root" style="font-family:&quot;Lucida Grande&quot;, &quot;Lucida Sans Unicode&quot;, Arial, Helvetica, sans-serif;font-size:12px;" xmlns="http://www.w3.org/2000/svg" width="600" height="500" viewBox="0 0 600 500"><desc>Created with Highstock 6.2.0</desc><defs><clipPath id="highcharts-sz9m9uc-3494"><rect x="0" y="0" width="580" height="254" fill="none"></rect></clipPath><clipPath id="highcharts-sz9m9uc-3627"><rect x="0" y="0" width="580" height="254" fill="none"></rect></clipPath><clipPath id="highcharts-sz9m9uc-4024"><rect x="0" y="0" width="552" height="40" fill="none"></rect></clipPath></defs><rect fill="#ffffff" class="highcharts-background" x="0" y="0" width="600" height="500" rx="0" ry="0"></rect><rect fill="none" class="highcharts-plot-background" x="10" y="93" width="580" height="254"></rect><g class="highcharts-plot-lines-0" data-z-index="0"><path fill="none" class="highcharts-plot-line " stroke="silver" stroke-width="2" d="M 10 284 L 590 284"></path></g><g class="highcharts-grid highcharts-xaxis-grid " data-z-index="1"><path fill="none" data-z-index="1" class="highcharts-grid-line" d="M 62.5 93 L 62.5 347" opacity="1"></path><path fill="none" data-z-index="1" class="highcharts-grid-line" d="M 168.5 93 L 168.5 347" opacity="1"></path><path fill="none" data-z-index="1" class="highcharts-grid-line" d="M 275.5 93 L 275.5 347" opacity="1"></path><path fill="none" data-z-index="1" class="highcharts-grid-line" d="M 381.5 93 L 381.5 347" opacity="1"></path><path fill="none" data-z-index="1" class="highcharts-grid-line" d="M 487.5 93 L 487.5 347" opacity="1"></path></g><g class="highcharts-grid highcharts-xaxis-grid highcharts-navigator-xaxis" data-z-index="1"><path fill="none" stroke="#e6e6e6" stroke-width="1" data-z-index="1" class="highcharts-grid-line" d="M 74.5 395 L 74.5 435" opacity="1"></path><path fill="none" stroke="#e6e6e6" stroke-width="1" data-z-index="1" class="highcharts-grid-line" d="M 326.5 395 L 326.5 435" opacity="1"></path></g><g class="highcharts-grid highcharts-yaxis-grid " data-z-index="1"><path fill="none" stroke="#e6e6e6" stroke-width="1" data-z-index="1" class="highcharts-grid-line" d="M 10 347.5 L 590 347.5" opacity="1"></path><path fill="none" stroke="#e6e6e6" stroke-width="1" data-z-index="1" class="highcharts-grid-line" d="M 10 284.5 L 590 284.5" opacity="1"></path><path fill="none" stroke="#e6e6e6" stroke-width="1" data-z-index="1" class="highcharts-grid-line" d="M 10 220.5 L 590 220.5" opacity="1"></path><path fill="none" stroke="#e6e6e6" stroke-width="1" data-z-index="1" class="highcharts-grid-line" d="M 10 157.5 L 590 157.5" opacity="1"></path><path fill="none" stroke="#e6e6e6" stroke-width="1" data-z-index="1" class="highcharts-grid-line" d="M 10 92.5 L 590 92.5" opacity="1"></path></g><g class="highcharts-grid highcharts-yaxis-grid highcharts-navigator-yaxis" data-z-index="1"><path fill="none" data-z-index="1" class="highcharts-grid-line" d="M 24 435.5 L 576 435.5" opacity="1"></path><path fill="none" data-z-index="1" class="highcharts-grid-line" d="M 24 402.5 L 576 402.5" opacity="1"></path></g><rect fill="none" class="highcharts-plot-border" data-z-index="1" x="10" y="93" width="580" height="254"></rect><g class="highcharts-axis highcharts-xaxis " data-z-index="2"><path fill="none" class="highcharts-tick" stroke="#ccd6eb" stroke-width="1" d="M 62.5 347 L 62.5 357" opacity="1"></path><path fill="none" class="highcharts-tick" stroke="#ccd6eb" stroke-width="1" d="M 168.5 347 L 168.5 357" opacity="1"></path><path fill="none" class="highcharts-tick" stroke="#ccd6eb" stroke-width="1" d="M 275.5 347 L 275.5 357" opacity="1"></path><path fill="none" class="highcharts-tick" stroke="#ccd6eb" stroke-width="1" d="M 381.5 347 L 381.5 357" opacity="1"></path><path fill="none" class="highcharts-tick" stroke="#ccd6eb" stroke-width="1" d="M 487.5 347 L 487.5 357" opacity="1"></path><path fill="none" class="highcharts-axis-line" stroke="#ccd6eb" stroke-width="1" data-z-index="7" d="M 10 347.5 L 590 347.5"></path></g><g class="highcharts-axis highcharts-xaxis highcharts-navigator-xaxis" data-z-index="2"><path fill="none" class="highcharts-axis-line" data-z-index="7" d="M 24 435 L 576 435"></path></g><g class="highcharts-axis highcharts-yaxis " data-z-index="2"><path fill="none" class="highcharts-axis-line" data-z-index="7" d="M 590 93 L 590 347"></path></g><g class="highcharts-axis highcharts-yaxis highcharts-navigator-yaxis" data-z-index="2"><path fill="none" class="highcharts-axis-line" data-z-index="7" d="M 10 395 L 10 435"></path></g><g class="highcharts-scrollbar" data-z-index="3" transform="translate(10,436)"><rect fill="#f2f2f2" class="highcharts-scrollbar-track" x="0" rx="0" ry="0" height="14" width="580" stroke="#f2f2f2" stroke-width="1" y="-0.5"></rect><g transform="translate(14,-0.5)"><rect fill="#cccccc" class="highcharts-scrollbar-thumb" height="14" width="552" rx="0" ry="0" stroke="#cccccc" stroke-width="1"></rect><path fill="none" d="M -3 3.5 L -3 9.333333333333334 M 0 3.5 L 0 9.333333333333334 M 3 3.5 L 3 9.333333333333334" class="highcharts-scrollbar-rifles" stroke="#333333" stroke-width="1" transform="translate(275.5,0)"></path></g><g><rect fill="#e6e6e6" class="highcharts-scrollbar-button" stroke="#cccccc" stroke-width="1" x="-0.5" y="-0.5" width="14" height="14" rx="0" ry="0"></rect><path fill="#333333" d="M 8 4 L 8 10 L 5 7" class="highcharts-scrollbar-arrow"></path></g><g transform="translate(566,0)"><rect fill="#e6e6e6" class="highcharts-scrollbar-button" stroke="#cccccc" stroke-width="1" x="-0.5" y="-0.5" width="14" height="14" rx="0" ry="0"></rect><path fill="#333333" d="M 6 4 L 6 10 L 9 7" class="highcharts-scrollbar-arrow"></path></g></g><g class="highcharts-series-group" data-z-index="3"><g data-z-index="0.1" class="highcharts-series highcharts-series-0 highcharts-spline-series " transform="translate(10,93) scale(1 1)" clip-path="url(#highcharts-sz9m9uc-3627)"><path fill="none" d="M 0 171.45 C 0 171.45 2.6564885496183 156.21 4.4274809160305 146.05 C 6.1984732824427 135.89000000000004 7.083969465648801 133.34999999999928 8.854961832061 120.65 C 10.6259541984734 107.94999999999929 11.5114503816796 92.71000000000116 13.282442748092 82.55000000000001 C 15.053435114504001 72.39000000000117 15.938931297710003 74.92999999999945 17.709923664122 69.85000000000002 C 19.4809160305344 64.76999999999944 20.3664122137406 63.500000000000725 22.137404580153 57.150000000000006 C 23.908396946565 50.80000000000072 24.793893129771 43.17999999999944 26.564885496183 38.10000000000002 C 28.335877862595403 33.01999999999944 29.2213740458016 31.75 30.992366412214 31.75 C 32.763358778626 31.75 33.648854961832 45.7200000000013 35.419847328244 57.150000000000006 C 37.190839694656404 68.58000000000129 38.076335877862604 77.46999999999875 39.847328244275 88.9 C 41.618320610687 100.32999999999875 42.503816793892994 101.60000000000143 44.274809160305 114.30000000000001 C 46.0458015267174 127.00000000000144 46.9312977099236 139.69999999999857 48.702290076336 152.4 C 50.473282442747994 165.09999999999854 51.358778625954 177.8 53.129770992366 177.8 C 54.9007633587784 177.8 55.7862595419846 163.8300000000013 57.557251908397 152.4 C 59.328244274809 140.97000000000128 60.213740458015 133.34999999999857 61.984732824427 120.65 C 63.75572519083939 107.94999999999858 64.6412213740456 88.9 66.412213740458 88.9 C 68.18320610687 88.9 69.068702290076 88.9 70.839694656488 88.9 C 72.61068702290041 88.9 73.4961832061066 63.500000000001435 75.267175572519 50.80000000000001 C 77.038167938931 38.10000000000144 77.923664122137 25.400000000000006 79.694656488549 25.400000000000006 C 81.4656488549614 25.400000000000006 82.3511450381676 43.180000000000014 84.12213740458 50.80000000000001 C 85.8931297709924 58.420000000000016 86.7786259541986 54.609999999999005 88.549618320611 63.5 C 90.320610687023 72.389999999999 91.206106870229 80.01000000000171 92.977099236641 95.25 C 94.7480916030534 110.49000000000171 95.6335877862596 121.91999999999399 97.404580152672 139.7 C 99.1755725190832 157.479999999994 100.0610687022888 184.15 101.8320610687 184.15 C 103.603053435112 184.15 104.488549618318 161.29000000000005 106.25954198473 152.4 C 108.030534351142 143.51000000000005 108.91603053434801 148.58999999999995 110.68702290076 139.7 C 112.458015267172 130.80999999999995 113.34351145037799 121.92000000000019 115.11450381679 107.95000000000002 C 116.88549618320198 93.98000000000019 117.77099236640802 69.85000000000002 119.54198473282 69.85000000000002 C 121.31297709923201 69.85000000000002 122.198473282438 69.85000000000002 123.96946564885 69.85000000000002 C 125.740458015266 69.85000000000002 126.625954198474 63.5 128.39694656489 63.5 C 130.167938931302 63.5 131.053435114508 63.5 132.82442748092 63.5 C 134.595419847332 63.5 135.480916030538 50.80000000000001 137.25190839695 50.80000000000001 C 139.02290076336197 50.80000000000001 139.908396946568 50.80000000000001 141.67938931298 50.80000000000001 C 143.45038167939202 50.80000000000001 144.335877862598 69.84999999999991 146.10687022901 82.55000000000001 C 147.877862595422 95.24999999999991 148.76335877862803 104.14000000000009 150.53435114504 114.30000000000001 C 152.305343511452 124.46000000000011 153.190839694658 127.00000000000003 154.96183206107 133.35000000000002 C 156.732824427482 139.70000000000002 157.618320610688 139.70000000000002 159.3893129771 146.05 C 161.160305343512 152.4 162.045801526718 165.10000000000002 163.81679389313 165.10000000000002 C 165.587786259542 165.10000000000002 166.473282442748 101.60000000000002 168.24427480916 101.60000000000002 C 170.01526717557198 101.60000000000002 170.900763358778 114.30000000000001 172.67175572519 114.30000000000001 C 174.442748091602 114.30000000000001 175.32824427480801 82.55000000000001 177.09923664122 76.20000000000002 C 178.870229007632 69.85000000000002 179.755725190838 73.66000000000003 181.52671755725 69.85000000000002 C 183.297709923662 66.04000000000002 184.183206106868 63.50000000000001 185.95419847328 57.150000000000006 C 187.725190839692 50.800000000000004 188.610687022898 38.10000000000002 190.38167938931 38.10000000000002 C 192.152671755722 38.10000000000002 193.03816793892798 52.07 194.80916030534 63.5 C 196.580152671752 74.92999999999999 197.465648854958 81.27999999999989 199.23664122137 95.25 C 201.00763358778198 109.2199999999999 201.893129770988 123.19000000001154 203.6641221374 133.35000000000002 C 205.435114503816 143.51000000001153 206.32061068702401 139.69999999999288 208.09160305344 146.05 C 209.862595419852 152.39999999999287 210.748091603058 165.10000000000002 212.51908396947 165.10000000000002 C 214.290076335882 165.10000000000002 215.175572519088 165.10000000000002 216.9465648855 165.10000000000002 C 218.717557251912 165.10000000000002 219.603053435118 152.39999999999998 221.37404580153 139.7 C 223.145038167942 127 224.030534351148 107.95000000000005 225.80152671756 101.60000000000002 C 227.57251908397197 95.25 228.458015267178 101.60000000000002 230.22900763359 95.25 C 232.000000000002 88.89999999999998 232.88549618320798 77.47000000000023 234.65648854962 63.5 C 236.42748091603198 49.53000000000023 237.31297709923803 25.400000000000006 239.08396946565 25.400000000000006 C 240.854961832062 25.400000000000006 241.740458015268 30.480000000000025 243.51145038168 38.10000000000002 C 245.282442748092 45.72000000000002 246.16793893129798 54.609999999999935 247.93893129771 63.5 C 249.70992366412202 72.38999999999993 250.595419847328 68.58 252.36641221374 82.55000000000001 C 254.137404580152 96.52000000000002 255.02290076335802 120.64999999999993 256.79389312977 133.35000000000002 C 258.564885496182 146.04999999999993 259.450381679388 146.05 261.2213740458 146.05 C 262.992366412212 146.05 263.877862595418 142.23999999999998 265.64885496183 139.7 C 267.41984732824204 137.15999999999997 268.30534351144803 139.7 270.07633587786 133.35000000000002 C 271.84732824427203 127.00000000000006 272.732824427478 111.76000000000003 274.50381679389 101.60000000000002 C 276.27480916030197 91.44000000000003 277.16030534350796 82.55000000000001 278.93129770992 82.55000000000001 C 280.70229007633196 82.55000000000001 281.587786259538 82.55000000000001 283.35877862595 82.55000000000001 C 285.12977099236195 82.55000000000001 286.015267175568 59.68999999998974 287.78625954198 50.80000000000001 C 289.55725190839604 41.909999999989736 290.44274809160396 38.10000000000002 292.21374045802 38.10000000000002 C 293.984732824432 38.10000000000002 294.87022900763805 57.150000000000006 296.64122137405 57.150000000000006 C 298.412213740462 57.150000000000006 299.29770992366804 50.80000000000001 301.06870229008 50.80000000000001 C 302.83969465649204 50.80000000000001 303.72519083969803 69.85000000000001 305.49618320611 82.55000000000001 C 307.267175572522 95.25000000000001 308.15267175572797 101.59999999999981 309.92366412214 114.30000000000001 C 311.69465648855197 126.9999999999998 312.58015267175796 139.70000000000002 314.35114503817 146.05 C 316.122137404582 152.4 317.007633587788 152.4 318.7786259542 152.4 C 320.549618320612 152.4 321.435114503818 152.4 323.20610687023 146.05 C 324.97709923664195 139.70000000000002 325.862595419848 132.07999999999998 327.63358778626 120.65 C 329.40458015267205 109.22 330.29007633587804 97.78999999999986 332.06106870229 88.9 C 333.83206106870205 80.00999999999988 334.71755725190803 83.82000000000002 336.48854961832 76.20000000000002 C 338.259541984732 68.58000000000001 339.14503816793797 59.69000000000016 340.91603053435 50.80000000000001 C 342.687022900762 41.91000000000015 343.572519083968 36.83 345.34351145038 31.75 C 347.11450381679197 26.669999999999998 347.999999999998 25.400000000000006 349.77099236641 25.400000000000006 C 351.541984732822 25.400000000000006 352.427480916028 55.880000000000244 354.19847328244 69.85000000000002 C 355.969465648852 83.82000000000025 356.854961832058 87.62999999999987 358.62595419847 95.25 C 360.396946564882 102.86999999999988 361.28244274808804 101.60000000000012 363.0534351145 107.95000000000002 C 364.82442748091205 114.30000000000013 365.70992366411804 119.38000000000014 367.48091603053 127 C 369.25190839694204 134.62000000000012 370.137404580148 146.05 371.90839694656 146.05 C 373.679389312976 146.05 374.564885496184 137.16000000000432 376.3358778626 133.35000000000002 C 378.10687022901203 129.5400000000043 378.992366412218 133.3499999999999 380.76335877863 127 C 382.534351145042 120.64999999999989 383.41984732824795 110.49000000000017 385.19083969466 101.60000000000002 C 386.96183206107196 92.71000000000016 387.84732824427795 88.90000000000012 389.61832061069 82.55000000000001 C 391.38931297710195 76.20000000000012 392.274809160308 77.47000000000003 394.04580152672 69.85000000000002 C 395.81679389313206 62.23000000000002 396.702290076338 52.07000000000014 398.47328244275 44.45000000000002 C 400.244274809162 36.83000000000014 401.129770992368 31.75 402.90076335878 31.75 C 404.671755725192 31.75 405.55725190839803 31.75000000000002 407.32824427481 44.45000000000002 C 409.099236641222 57.15000000000002 409.984732824428 77.47000000000028 411.75572519084 95.25 C 413.526717557252 113.03000000000029 414.412213740458 121.92000000000019 416.18320610687 133.35000000000002 C 417.954198473282 144.7800000000002 418.83969465648795 146.05 420.6106870229 152.4 C 422.381679389312 158.75 423.26717557251794 165.10000000000002 425.03816793893 165.10000000000002 C 426.809160305342 165.10000000000002 427.69465648854805 144.77999999999986 429.46564885496 133.35000000000002 C 431.23664122137205 121.91999999999985 432.122137404578 114.30000000000003 433.89312977099 107.95000000000002 C 435.66412213740205 101.60000000000002 436.549618320608 107.95000000000002 438.32061068702 101.60000000000002 C 440.09160305343204 95.25000000000003 440.9770992366381 81.27999999999966 442.74809160305 69.85000000000002 C 444.51908396946203 58.41999999999965 445.40458015266796 50.80000000000012 447.17557251908 44.45000000000002 C 448.94656488549197 38.10000000000012 449.832061068698 38.10000000000002 451.60305343511 38.10000000000002 C 453.374045801526 38.10000000000002 454.259541984734 38.10000000000002 456.03053435115 38.10000000000002 C 457.80152671756196 38.10000000000002 458.687022900768 63.50000000000003 460.45801526718 69.85000000000002 C 462.229007633592 76.20000000000002 463.114503816798 69.85000000000002 464.88549618321 76.20000000000002 C 466.656488549622 82.55000000000001 467.54198473282804 106.68000000000004 469.31297709924 120.65 C 471.083969465652 134.62 471.96946564885803 146.05 473.74045801527 146.05 C 475.511450381682 146.05 476.396946564888 133.35000000000002 478.1679389313 133.35000000000002 C 479.93893129771203 133.35000000000002 480.82442748091796 165.10000000000002 482.59541984733 165.10000000000002 C 484.3664122137419 165.10000000000002 485.25190839694795 143.51 487.02290076336 127 C 488.793893129772 110.49 489.67938931297795 96.52000000000001 491.45038167939 82.55000000000001 C 493.221374045802 68.58000000000001 494.106870229008 64.77000000000025 495.87786259542 57.150000000000006 C 497.64885496183194 49.53000000000024 498.534351145038 53.34000000000002 500.30534351145 44.45000000000002 C 502.07633587786205 35.56000000000002 502.961832061068 12.700000000000017 504.73282442748 12.700000000000017 C 506.50381679389204 12.700000000000017 507.389312977098 17.779999999999884 509.16030534351 25.400000000000006 C 510.931297709922 33.01999999999988 511.816793893128 41.90999999999986 513.58778625954 50.80000000000001 C 515.358778625952 59.68999999999987 516.244274809158 57.15000000000002 518.01526717557 69.85000000000002 C 519.786259541982 82.55000000000003 520.671755725188 102.86999999999964 522.4427480916 114.30000000000001 C 524.213740458012 125.72999999999965 525.099236641218 119.38000000000024 526.87022900763 127 C 528.6412213740421 134.62000000000023 529.526717557248 152.4 531.29770992366 152.4 C 533.068702290072 152.4 533.954198473278 114.30000000000001 535.72519083969 107.95000000000002 C 537.496183206106 101.60000000000002 538.3816793893141 106.68000000000573 540.15267175573 101.60000000000002 C 541.923664122142 96.52000000000574 542.8091603053479 88.90000000000022 544.58015267176 82.55000000000001 C 546.3511450381719 76.20000000000022 547.236641221378 80.01000000000002 549.00763358779 69.85000000000002 C 550.778625954202 59.69000000000002 551.6641221374081 43.18 553.43511450382 31.75 C 555.206106870232 20.319999999999997 556.0916030534379 12.700000000000017 557.86259541985 12.700000000000017 C 559.633587786262 12.700000000000017 560.519083969468 12.700000000000017 562.29007633588 19.05000000000001 C 564.061068702292 25.400000000000006 564.946564885498 38.10000000000042 566.71755725191 50.80000000000001 C 568.488549618322 63.500000000000426 569.3740458015279 67.30999999999904 571.14503816794 82.55000000000001 C 572.9160305343519 97.78999999999904 573.8015267175581 127 575.57251908397 127 C 577.343511450382 127 580 127 580 127" class="highcharts-graph" data-z-index="1" stroke="#FF8533" stroke-width="2" stroke-linejoin="round" stroke-linecap="round"></path></g><g data-z-index="0.1" class="highcharts-markers highcharts-series-0 highcharts-spline-series " transform="translate(10,93) scale(1 1)" clip-path="none"></g><g data-z-index="0.1" class="highcharts-series highcharts-series-1 highcharts-spline-series " transform="translate(10,93) scale(1 1)" clip-path="url(#highcharts-sz9m9uc-3627)"><path fill="none" d="M 0 203.2 C 0 203.2 2.6564885496183 196.85 4.4274809160305 190.5 C 6.1984732824427 184.15 7.083969465648801 181.60999999999942 8.854961832061 171.45 C 10.6259541984734 161.2899999999994 11.5114503816796 146.04999999999995 13.282442748092 139.7 C 15.053435114504001 133.35000000000002 15.938931297710003 137.15999999999957 17.709923664122 133.35000000000002 C 19.4809160305344 129.5399999999996 20.3664122137406 127.00000000000072 22.137404580153 120.65 C 23.908396946565 114.30000000000072 24.793893129771 101.60000000000002 26.564885496183 101.60000000000002 C 28.335877862595403 101.60000000000002 29.2213740458016 101.60000000000002 30.992366412214 101.60000000000002 C 32.763358778626 101.60000000000002 33.648854961832 106.68000000000089 35.419847328244 114.30000000000001 C 37.190839694656404 121.92000000000085 38.076335877862604 133.34999999999928 39.847328244275 139.7 C 41.618320610687 146.04999999999927 42.503816793892994 139.7 44.274809160305 146.05 C 46.0458015267174 152.40000000000003 46.9312977099236 172.71999999999872 48.702290076336 184.15 C 50.473282442747994 195.5799999999987 51.358778625954 203.2 53.129770992366 203.2 C 54.9007633587784 203.2 55.7862595419846 190.50000000000074 57.557251908397 184.15 C 59.328244274809 177.80000000000072 60.213740458015 176.5299999999994 61.984732824427 171.45 C 63.75572519083939 166.3699999999994 64.6412213740456 163.83000000000055 66.412213740458 158.75 C 68.18320610687 153.67000000000058 69.068702290076 154.93999999999903 70.839694656488 146.05 C 72.61068702290041 137.159999999999 73.4961832061066 123.19000000000099 75.267175572519 114.30000000000001 C 77.038167938931 105.41000000000102 77.923664122137 101.60000000000002 79.694656488549 101.60000000000002 C 81.4656488549614 101.60000000000002 82.3511450381676 109.22000000000001 84.12213740458 114.30000000000001 C 85.8931297709924 119.38000000000001 86.7786259541986 120.64999999999928 88.549618320611 127 C 90.320610687023 133.34999999999928 91.206106870229 137.16000000000102 92.977099236641 146.05 C 94.7480916030534 154.940000000001 95.6335877862596 158.7499999999957 97.404580152672 171.45 C 99.1755725190832 184.1499999999957 100.0610687022888 209.55 101.8320610687 209.55 C 103.603053435112 209.55 104.488549618318 190.50000000000003 106.25954198473 184.15 C 108.030534351142 177.80000000000004 108.91603053434801 181.60999999999999 110.68702290076 177.8 C 112.458015267172 173.99 113.34351145037799 172.7200000000001 115.11450381679 165.10000000000002 C 116.88549618320198 157.4800000000001 117.77099236640802 139.7 119.54198473282 139.7 C 121.31297709923201 139.7 122.198473282438 139.7 123.96946564885 139.7 C 125.740458015266 139.7 126.625954198474 120.65 128.39694656489 120.65 C 130.167938931302 120.65 131.053435114508 120.65 132.82442748092 120.65 C 134.595419847332 120.65 135.480916030538 107.95000000000002 137.25190839695 107.95000000000002 C 139.02290076336197 107.95000000000002 139.908396946568 109.22000000000004 141.67938931298 114.30000000000001 C 143.45038167939202 119.38000000000005 144.335877862598 125.72999999999996 146.10687022901 133.35000000000002 C 147.877862595422 140.96999999999997 148.76335877862803 146.05000000000007 150.53435114504 152.4 C 152.305343511452 158.75000000000006 153.190839694658 161.29000000000005 154.96183206107 165.10000000000002 C 156.732824427482 168.91000000000003 157.618320610688 165.10000000000002 159.3893129771 171.45 C 161.160305343512 177.79999999999995 162.045801526718 203.2 163.81679389313 203.2 C 165.587786259542 203.2 166.473282442748 165.10000000000002 168.24427480916 165.10000000000002 C 170.01526717557198 165.10000000000002 170.900763358778 165.10000000000002 172.67175572519 165.10000000000002 C 174.442748091602 165.10000000000002 175.32824427480801 142.23999999999995 177.09923664122 133.35000000000002 C 178.870229007632 124.45999999999997 179.755725190838 124.46000000000001 181.52671755725 120.65 C 183.297709923662 116.84 184.183206106868 118.11 185.95419847328 114.30000000000001 C 187.725190839692 110.49000000000002 188.610687022898 101.60000000000002 190.38167938931 101.60000000000002 C 192.152671755722 101.60000000000002 193.03816793892798 120.65 194.80916030534 127 C 196.580152671752 133.35000000000002 197.465648854958 127 199.23664122137 133.35000000000002 C 201.00763358778198 139.70000000000005 201.893129770988 158.75000000000006 203.6641221374 165.10000000000002 C 205.435114503816 171.45 206.32061068702401 166.3699999999943 208.09160305344 171.45 C 209.862595419852 176.5299999999943 210.748091603058 185.42 212.51908396947 190.5 C 214.290076335882 195.58 215.175572519088 196.85 216.9465648855 196.85 C 218.717557251912 196.85 219.603053435118 196.85 221.37404580153 190.5 C 223.145038167942 184.14999999999998 224.030534351148 172.72000000000008 225.80152671756 165.10000000000002 C 227.57251908397197 157.4800000000001 228.458015267178 161.28999999999996 230.22900763359 152.4 C 232.000000000002 143.50999999999993 232.88549618320798 132.08000000000018 234.65648854962 120.65 C 236.42748091603198 109.2200000000002 237.31297709923803 95.25 239.08396946565 95.25 C 240.854961832062 95.25 241.740458015268 102.87000000000002 243.51145038168 107.95000000000002 C 245.282442748092 113.03000000000003 246.16793893129798 116.83999999999997 247.93893129771 120.65 C 249.70992366412202 124.45999999999997 250.595419847328 120.65 252.36641221374 127 C 254.137404580152 133.35 255.02290076335802 158.75000000000006 256.79389312977 165.10000000000002 C 258.564885496182 171.45 259.450381679388 171.45 261.2213740458 171.45 C 262.992366412212 171.45 263.877862595418 165.10000000000002 265.64885496183 165.10000000000002 C 267.41984732824204 165.10000000000002 268.30534351144803 171.45 270.07633587786 171.45 C 271.84732824427203 171.45 272.732824427478 170.18000000000004 274.50381679389 165.10000000000002 C 276.27480916030197 160.02000000000004 277.16030534350796 151.1300000000001 278.93129770992 146.05 C 280.70229007633196 140.97000000000008 281.587786259538 144.78 283.35877862595 139.7 C 285.12977099236195 134.61999999999998 286.015267175568 128.2699999999912 287.78625954198 120.65 C 289.55725190839604 113.0299999999912 290.44274809160396 101.60000000000002 292.21374045802 101.60000000000002 C 293.984732824432 101.60000000000002 294.87022900763805 114.30000000000001 296.64122137405 114.30000000000001 C 298.412213740462 114.30000000000001 299.29770992366804 114.30000000000001 301.06870229008 114.30000000000001 C 302.83969465649204 114.30000000000001 303.72519083969803 120.64999999999999 305.49618320611 127 C 307.267175572522 133.35 308.15267175572797 137.15999999999988 309.92366412214 146.05 C 311.69465648855197 154.93999999999986 312.58015267175796 163.83 314.35114503817 171.45 C 316.122137404582 179.07 317.007633587788 184.15 318.7786259542 184.15 C 320.549618320612 184.15 321.435114503818 184.15 323.20610687023 184.15 C 324.97709923664195 184.15 325.862595419848 172.72000000000003 327.63358778626 165.10000000000002 C 329.40458015267205 157.48000000000002 330.29007633587804 151.12999999999994 332.06106870229 146.05 C 333.83206106870205 140.9699999999999 334.71755725190803 144.78 336.48854961832 139.7 C 338.259541984732 134.61999999999998 339.14503816793797 129.54000000000013 340.91603053435 120.65 C 342.687022900762 111.76000000000015 343.572519083968 101.6 345.34351145038 95.25 C 347.11450381679197 88.9 347.999999999998 88.9 349.77099236641 88.9 C 351.541984732822 88.9 352.427480916028 115.57000000000016 354.19847328244 127 C 355.969465648852 138.43000000000018 356.854961832058 146.05 358.62595419847 146.05 C 360.396946564882 146.05 361.28244274808804 139.7 363.0534351145 139.7 C 364.82442748091205 139.7 365.70992366411804 146.0500000000001 367.48091603053 152.4 C 369.25190839694204 158.7500000000001 370.137404580148 171.45 371.90839694656 171.45 C 373.679389312976 171.45 374.564885496184 171.45 376.3358778626 171.45 C 378.10687022901203 171.45 378.992366412218 171.45 380.76335877863 171.45 C 382.534351145042 171.45 383.41984732824795 166.37000000000012 385.19083969466 158.75 C 386.96183206107196 151.13000000000014 387.84732824427795 142.24000000000018 389.61832061069 133.35000000000002 C 391.38931297710195 124.46000000000016 392.274809160308 120.65000000000002 394.04580152672 114.30000000000001 C 395.81679389313206 107.95000000000002 396.702290076338 101.60000000000002 398.47328244275 101.60000000000002 C 400.244274809162 101.60000000000002 401.129770992368 101.60000000000002 402.90076335878 101.60000000000002 C 404.671755725192 101.60000000000002 405.55725190839803 101.60000000000002 407.32824427481 107.95000000000002 C 409.099236641222 114.30000000000001 409.984732824428 134.62000000000018 411.75572519084 146.05 C 413.526717557252 157.4800000000002 414.412213740458 157.48000000000013 416.18320610687 165.10000000000002 C 417.954198473282 172.72000000000014 418.83969465648795 177.8 420.6106870229 184.15 C 422.381679389312 190.5 423.26717557251794 196.85 425.03816793893 196.85 C 426.809160305342 196.85 427.69465648854805 173.98999999999987 429.46564885496 165.10000000000002 C 431.23664122137205 156.2099999999999 432.122137404578 152.4 433.89312977099 152.4 C 435.66412213740205 152.4 436.549618320608 158.75 438.32061068702 158.75 C 440.09160305343204 158.75 440.9770992366381 137.15999999999966 442.74809160305 127 C 444.51908396946203 116.83999999999969 445.40458015266796 114.30000000000013 447.17557251908 107.95000000000002 C 448.94656488549197 101.60000000000012 449.832061068698 99.05999999999565 451.60305343511 95.25 C 453.374045801526 91.43999999999565 454.259541984734 88.9 456.03053435115 88.9 C 457.80152671756196 88.9 458.687022900768 102.8700000000001 460.45801526718 107.95000000000002 C 462.229007633592 113.0300000000001 463.114503816798 107.95000000000002 464.88549618321 114.30000000000001 C 466.656488549622 120.65 467.54198473282804 140.97 469.31297709924 152.4 C 471.083969465652 163.82999999999998 471.96946564885803 171.45 473.74045801527 171.45 C 475.511450381682 171.45 476.396946564888 152.4 478.1679389313 152.4 C 479.93893129771203 152.4 480.82442748091796 196.85 482.59541984733 196.85 C 484.3664122137419 196.85 485.25190839694795 177.8 487.02290076336 165.10000000000002 C 488.793893129772 152.40000000000003 489.67938931297795 142.24 491.45038167939 133.35000000000002 C 493.221374045802 124.46000000000004 494.106870229008 128.27000000000027 495.87786259542 120.65 C 497.64885496183194 113.03000000000024 498.534351145038 104.14 500.30534351145 95.25 C 502.07633587786205 86.36000000000001 502.961832061068 76.20000000000002 504.73282442748 76.20000000000002 C 506.50381679389204 76.20000000000002 507.389312977098 76.20000000000002 509.16030534351 82.55000000000001 C 510.931297709922 88.9 511.816793893128 101.59999999999991 513.58778625954 107.95000000000002 C 515.358778625952 114.29999999999991 516.244274809158 107.95000000000003 518.01526717557 114.30000000000001 C 519.786259541982 120.65 520.671755725188 133.3499999999998 522.4427480916 139.7 C 524.213740458012 146.04999999999978 525.099236641218 139.70000000000022 526.87022900763 146.05 C 528.6412213740421 152.4000000000002 529.526717557248 171.45 531.29770992366 171.45 C 533.068702290072 171.45 533.954198473278 152.40000000000003 535.72519083969 146.05 C 537.496183206106 139.7 538.3816793893141 142.24000000000285 540.15267175573 139.7 C 541.923664122142 137.16000000000284 542.8091603053479 137.16000000000014 544.58015267176 133.35000000000002 C 546.3511450381719 129.54000000000016 547.236641221378 130.81 549.00763358779 120.65 C 550.778625954202 110.49000000000001 551.6641221374081 88.9 553.43511450382 82.55000000000001 C 555.206106870232 76.20000000000002 556.0916030534379 78.7400000000001 557.86259541985 76.20000000000002 C 559.633587786262 73.6600000000001 560.519083969468 69.85000000000002 562.29007633588 69.85000000000002 C 564.061068702292 69.85000000000002 564.946564885498 92.7100000000003 566.71755725191 101.60000000000002 C 568.488549618322 110.49000000000031 569.3740458015279 104.13999999999936 571.14503816794 114.30000000000001 C 572.9160305343519 124.45999999999935 573.8015267175581 146.05 575.57251908397 152.4 C 577.343511450382 158.75 580 158.75 580 158.75" class="highcharts-graph" data-z-index="1" stroke="#4572A7" stroke-width="2" stroke-linejoin="round" stroke-linecap="round"></path></g><g data-z-index="0.1" class="highcharts-markers highcharts-series-1 highcharts-spline-series " transform="translate(10,93) scale(1 1)" clip-path="none"></g><g data-z-index="0.1" class="highcharts-series highcharts-series-2 highcharts-spline-series highcharts-color-0 " transform="translate(10,93) scale(1 1)" clip-path="url(#highcharts-sz9m9uc-3627)"><path fill="none" d="M 0 190.5 C 0 190.5 2.6564885496183 180.34 4.4274809160305 171.45 C 6.1984732824427 162.56 7.083969465648801 157.47999999999936 8.854961832061 146.05 C 10.6259541984734 134.61999999999938 11.5114503816796 123.19000000000099 13.282442748092 114.30000000000001 C 15.053435114504001 105.41000000000102 15.938931297710003 106.67999999999945 17.709923664122 101.60000000000002 C 19.4809160305344 96.51999999999944 20.3664122137406 95.25000000000072 22.137404580153 88.9 C 23.908396946565 82.55000000000072 24.793893129771 74.92999999999944 26.564885496183 69.85000000000002 C 28.335877862595403 64.76999999999944 29.2213740458016 63.5 30.992366412214 63.5 C 32.763358778626 63.5 33.648854961832 78.74000000000115 35.419847328244 88.9 C 37.190839694656404 99.06000000000115 38.076335877862604 105.40999999999902 39.847328244275 114.30000000000001 C 41.618320610687 123.18999999999903 42.503816793892994 121.92000000000132 44.274809160305 133.35000000000002 C 46.0458015267174 144.7800000000013 46.9312977099236 160.01999999999867 48.702290076336 171.45 C 50.473282442747994 182.8799999999987 51.358778625954 190.5 53.129770992366 190.5 C 54.9007633587784 190.5 55.7862595419846 179.07000000000085 57.557251908397 171.45 C 59.328244274809 163.83000000000084 60.213740458015 161.289999999999 61.984732824427 152.4 C 63.75572519083939 143.509999999999 64.6412213740456 134.62000000000086 66.412213740458 127 C 68.18320610687 119.38000000000086 69.068702290076 123.18999999999902 70.839694656488 114.30000000000001 C 72.61068702290041 105.409999999999 73.4961832061066 92.71000000000116 75.267175572519 82.55000000000001 C 77.038167938931 72.39000000000115 77.923664122137 63.5 79.694656488549 63.5 C 81.4656488549614 63.5 82.3511450381676 74.93 84.12213740458 82.55000000000001 C 85.8931297709924 90.17000000000002 86.7786259541986 92.70999999999903 88.549618320611 101.60000000000002 C 90.320610687023 110.48999999999903 91.206106870229 116.84000000000114 92.977099236641 127 C 94.7480916030534 137.16000000000113 95.6335877862596 138.4299999999953 97.404580152672 152.4 C 99.1755725190832 166.3699999999953 100.0610687022888 196.85 101.8320610687 196.85 C 103.603053435112 196.85 104.488549618318 179.07000000000002 106.25954198473 171.45 C 108.030534351142 163.83 108.91603053434801 165.09999999999997 110.68702290076 158.75 C 112.458015267172 152.39999999999998 113.34351145037799 149.8600000000001 115.11450381679 139.7 C 116.88549618320198 129.5400000000001 117.77099236640802 114.30000000000001 119.54198473282 107.95000000000002 C 121.31297709923201 101.60000000000002 122.198473282438 105.40999999999573 123.96946564885 101.60000000000002 C 125.740458015266 97.78999999999573 126.625954198474 88.9 128.39694656489 88.9 C 130.167938931302 88.9 131.053435114508 88.9 132.82442748092 88.9 C 134.595419847332 88.9 135.480916030538 76.20000000000002 137.25190839695 76.20000000000002 C 139.02290076336197 76.20000000000002 139.908396946568 81.28000000000007 141.67938931298 88.9 C 143.45038167939202 96.52000000000007 144.335877862598 105.40999999999993 146.10687022901 114.30000000000001 C 147.877862595422 123.18999999999994 148.76335877862803 125.73000000000008 150.53435114504 133.35000000000002 C 152.305343511452 140.97000000000008 153.190839694658 147.32000000000002 154.96183206107 152.4 C 156.732824427482 157.48 157.618320610688 152.4 159.3893129771 158.75 C 161.160305343512 165.10000000000002 162.045801526718 184.15 163.81679389313 184.15 C 165.587786259542 184.15 166.473282442748 133.35000000000002 168.24427480916 133.35000000000002 C 170.01526717557198 133.35000000000002 170.900763358778 139.7 172.67175572519 139.7 C 174.442748091602 139.7 175.32824427480801 107.95000000000005 177.09923664122 101.60000000000002 C 178.870229007632 95.25 179.755725190838 99.06 181.52671755725 95.25 C 183.297709923662 91.44 184.183206106868 87.63000000000001 185.95419847328 82.55000000000001 C 187.725190839692 77.47000000000001 188.610687022898 69.85000000000002 190.38167938931 69.85000000000002 C 192.152671755722 69.85000000000002 193.03816793892798 92.71000000000002 194.80916030534 101.60000000000002 C 196.580152671752 110.49000000000002 197.465648854958 104.13999999999993 199.23664122137 114.30000000000001 C 201.00763358778198 124.45999999999992 201.893129770988 146.05 203.6641221374 152.4 C 205.435114503816 158.75 206.32061068702401 153.66999999999427 208.09160305344 158.75 C 209.862595419852 163.8299999999943 210.748091603058 177.8 212.51908396947 177.8 C 214.290076335882 177.8 215.175572519088 177.8 216.9465648855 177.8 C 218.717557251912 177.8 219.603053435118 173.99 221.37404580153 165.10000000000002 C 223.145038167942 156.21000000000004 224.030534351148 142.24000000000007 225.80152671756 133.35000000000002 C 227.57251908397197 124.46000000000011 228.458015267178 128.26999999999995 230.22900763359 120.65 C 232.000000000002 113.02999999999994 232.88549618320798 107.9500000000002 234.65648854962 95.25 C 236.42748091603198 82.55000000000021 237.31297709923803 57.150000000000006 239.08396946565 57.150000000000006 C 240.854961832062 57.150000000000006 241.740458015268 62.23000000000002 243.51145038168 69.85000000000002 C 245.282442748092 77.47000000000003 246.16793893129798 87.62999999999994 247.93893129771 95.25 C 249.70992366412202 102.86999999999995 250.595419847328 96.52000000000001 252.36641221374 107.95000000000002 C 254.137404580152 119.38000000000002 255.02290076335802 146.05 256.79389312977 152.4 C 258.564885496182 158.75 259.450381679388 158.75 261.2213740458 158.75 C 262.992366412212 158.75 263.877862595418 152.4 265.64885496183 152.4 C 267.41984732824204 152.4 268.30534351144803 152.4 270.07633587786 152.4 C 271.84732824427203 152.4 272.732824427478 139.70000000000002 274.50381679389 133.35000000000002 C 276.27480916030197 127.00000000000003 277.16030534350796 125.73000000000009 278.93129770992 120.65 C 280.70229007633196 115.57000000000009 281.587786259538 114.30000000000003 283.35877862595 107.95000000000002 C 285.12977099236195 101.60000000000002 286.015267175568 96.5199999999912 287.78625954198 88.9 C 289.55725190839604 81.2799999999912 290.44274809160396 69.85000000000002 292.21374045802 69.85000000000002 C 293.984732824432 69.85000000000002 294.87022900763805 88.9 296.64122137405 88.9 C 298.412213740462 88.9 299.29770992366804 82.55000000000001 301.06870229008 82.55000000000001 C 302.83969465649204 82.55000000000001 303.72519083969803 97.79 305.49618320611 107.95000000000002 C 307.267175572522 118.11000000000001 308.15267175572797 121.91999999999983 309.92366412214 133.35000000000002 C 311.69465648855197 144.77999999999983 312.58015267175796 165.10000000000002 314.35114503817 165.10000000000002 C 316.122137404582 165.10000000000002 317.007633587788 165.10000000000002 318.7786259542 165.10000000000002 C 320.549618320612 165.10000000000002 321.435114503818 171.45 323.20610687023 171.45 C 324.97709923664195 171.45 325.862595419848 156.21 327.63358778626 146.05 C 329.40458015267205 135.89000000000004 330.29007633587804 128.26999999999987 332.06106870229 120.65 C 333.83206106870205 113.02999999999989 334.71755725190803 115.57000000000002 336.48854961832 107.95000000000002 C 338.259541984732 100.33000000000001 339.14503816793797 91.44000000000015 340.91603053435 82.55000000000001 C 342.687022900762 73.66000000000015 343.572519083968 63.5 345.34351145038 63.5 C 347.11450381679197 63.5 347.999999999998 63.5 349.77099236641 63.5 C 351.541984732822 63.5 352.427480916028 90.1700000000002 354.19847328244 101.60000000000002 C 355.969465648852 113.03000000000021 356.854961832058 115.56999999999992 358.62595419847 120.65 C 360.396946564882 125.72999999999992 361.28244274808804 123.19000000000007 363.0534351145 127 C 364.82442748091205 130.81000000000006 365.70992366411804 133.35000000000008 367.48091603053 139.7 C 369.25190839694204 146.0500000000001 370.137404580148 158.75 371.90839694656 158.75 C 373.679389312976 158.75 374.564885496184 152.4 376.3358778626 152.4 C 378.10687022901203 152.4 378.992366412218 152.4 380.76335877863 152.4 C 382.534351145042 152.4 383.41984732824795 142.24000000000018 385.19083969466 133.35000000000002 C 386.96183206107196 124.46000000000016 387.84732824427795 116.84000000000016 389.61832061069 107.95000000000002 C 391.38931297710195 99.06000000000016 392.274809160308 95.25 394.04580152672 88.9 C 395.81679389313206 82.55000000000001 396.702290076338 81.2800000000001 398.47328244275 76.20000000000002 C 400.244274809162 71.12000000000009 401.129770992368 63.5 402.90076335878 63.5 C 404.671755725192 63.5 405.55725190839803 69.85000000000001 407.32824427481 82.55000000000001 C 409.099236641222 95.25000000000001 409.984732824428 114.30000000000021 411.75572519084 127 C 413.526717557252 139.70000000000022 414.412213740458 137.16000000000017 416.18320610687 146.05 C 417.954198473282 154.94000000000014 418.83969465648795 163.83 420.6106870229 171.45 C 422.381679389312 179.07 423.26717557251794 184.15 425.03816793893 184.15 C 426.809160305342 184.15 427.69465648854805 162.55999999999983 429.46564885496 152.4 C 431.23664122137205 142.23999999999987 432.122137404578 133.35000000000002 433.89312977099 133.35000000000002 C 435.66412213740205 133.35000000000002 436.549618320608 133.35000000000002 438.32061068702 133.35000000000002 C 440.09160305343204 133.35000000000002 440.9770992366381 107.94999999999959 442.74809160305 95.25 C 444.51908396946203 82.54999999999959 445.40458015266796 69.85000000000002 447.17557251908 69.85000000000002 C 448.94656488549197 69.85000000000002 449.832061068698 69.85000000000002 451.60305343511 69.85000000000002 C 453.374045801526 69.85000000000002 454.259541984734 63.5 456.03053435115 63.5 C 457.80152671756196 63.5 458.687022900768 81.28000000000013 460.45801526718 88.9 C 462.229007633592 96.52000000000014 463.114503816798 91.43999999999986 464.88549618321 101.60000000000002 C 466.656488549622 111.75999999999985 467.54198473282804 128.26999999999998 469.31297709924 139.7 C 471.083969465652 151.13 471.96946564885803 158.75 473.74045801527 158.75 C 475.511450381682 158.75 476.396946564888 146.05 478.1679389313 146.05 C 479.93893129771203 146.05 480.82442748091796 184.15 482.59541984733 184.15 C 484.3664122137419 184.15 485.25190839694795 161.29000000000002 487.02290076336 146.05 C 488.793893129772 130.81 489.67938931297795 119.38000000000001 491.45038167939 107.95000000000002 C 493.221374045802 96.52000000000001 494.106870229008 96.52000000000025 495.87786259542 88.9 C 497.64885496183194 81.28000000000026 498.534351145038 78.74000000000001 500.30534351145 69.85000000000002 C 502.07633587786205 60.96000000000002 502.961832061068 44.45000000000002 504.73282442748 44.45000000000002 C 506.50381679389204 44.45000000000002 507.389312977098 49.52999999999987 509.16030534351 57.150000000000006 C 510.931297709922 64.76999999999988 511.816793893128 76.19999999999992 513.58778625954 82.55000000000001 C 515.358778625952 88.8999999999999 516.244274809158 82.55000000000001 518.01526717557 88.9 C 519.786259541982 95.25 520.671755725188 116.83999999999969 522.4427480916 127 C 524.213740458012 137.15999999999968 525.099236641218 132.08000000000024 526.87022900763 139.7 C 528.6412213740421 147.32000000000025 529.526717557248 165.10000000000002 531.29770992366 165.10000000000002 C 533.068702290072 165.10000000000002 533.954198473278 133.35 535.72519083969 127 C 537.496183206106 120.65 538.3816793893141 125.73000000000572 540.15267175573 120.65 C 541.923664122142 115.57000000000572 542.8091603053479 107.95000000000023 544.58015267176 101.60000000000002 C 546.3511450381719 95.25000000000021 547.236641221378 99.06000000000002 549.00763358779 88.9 C 550.778625954202 78.74000000000001 551.6641221374081 60.96000000000001 553.43511450382 50.80000000000001 C 555.206106870232 40.640000000000015 556.0916030534379 38.10000000000002 557.86259541985 38.10000000000002 C 559.633587786262 38.10000000000002 560.519083969468 38.10000000000002 562.29007633588 38.10000000000002 C 564.061068702292 38.10000000000002 564.946564885498 64.77000000000038 566.71755725191 76.20000000000002 C 568.488549618322 87.63000000000038 569.3740458015279 83.81999999999927 571.14503816794 95.25 C 572.9160305343519 106.67999999999927 573.8015267175581 127.00000000000006 575.57251908397 133.35000000000002 C 577.343511450382 139.7 580 139.7 580 139.7" class="highcharts-graph" data-z-index="1" stroke="#7cb5ec" stroke-width="2" stroke-linejoin="round" stroke-linecap="round"></path></g><g data-z-index="0.1" class="highcharts-markers highcharts-series-2 highcharts-spline-series highcharts-color-0 " transform="translate(10,93) scale(1 1)" clip-path="none"></g><g data-z-index="0.1" class="highcharts-series highcharts-series-3 highcharts-areaspline-series highcharts-navigator-series" transform="translate(24,395) scale(1 1)" clip-path="url(#highcharts-sz9m9uc-4024)"><path fill="rgb(255,133,51)" fill-opacity="0.05" d="M 0 36.09120521172638 C 0 36.09120521172638 2.52824427480912 32.96416938110747 4.2137404580152 30.879478827361563 C 5.89923664122132 28.79478827361561 6.74198473282438 28.273615635179095 8.4274809160305 25.667752442996743 C 10.1129770992367 23.06188925081427 10.9557251908398 19.93485342019556 12.641221374046 17.85016286644951 C 14.326717557252 15.765472312703702 15.169465648855 16.28664495114006 16.854961832061 15.244299674267097 C 18.540458015267 14.201954397394132 19.38320610687 13.941368078175897 21.068702290076 12.638436482084689 C 22.754198473282 11.335504885993485 23.596946564885002 9.771986970683914 25.282442748091 8.729641693811072 C 26.967938931297397 7.6872964169379845 27.810687022900602 7.4267100977198695 29.496183206107 7.4267100977198695 C 31.181679389313 7.4267100977198695 32.024427480916 10.293159609120798 33.709923664122 12.638436482084689 C 35.3954198473284 14.983713355049137 36.238167938931596 16.807817589576263 37.923664122138 19.153094462540714 C 39.609160305344 21.498371335504604 40.451908396947 21.75895765472312 42.137404580153 24.364820846905538 C 43.822900763359 26.970684039087942 44.665648854962 29.576547231270357 46.351145038168 32.182410423452765 C 48.036641221374 34.78827361563518 48.879389312977004 37.39413680781759 50.564885496183 37.39413680781759 C 52.250381679389 37.39413680781759 53.09312977099201 34.527687296416644 54.778625954198 32.182410423452765 C 56.4641221374044 29.837133550488307 57.3068702290076 28.273615635179457 58.992366412214 25.667752442996743 C 60.67786259542 23.061889250814637 61.520610687022995 19.153094462540714 63.206106870229 19.153094462540714 C 64.891603053435 19.153094462540714 65.734351145038 19.153094462540714 67.419847328244 19.153094462540714 C 69.10534351145 19.153094462540714 69.948091603053 13.941368078175588 71.633587786259 11.335504885993483 C 73.3190839694654 8.729641693810766 74.16183206106861 6.123778501628664 75.847328244275 6.123778501628664 C 77.532824427481 6.123778501628664 78.37557251908399 9.771986970684216 80.06106870229 11.335504885993483 C 81.7465648854964 12.899022801303108 82.5893129770996 12.117263843647981 84.274809160306 13.941368078175891 C 85.960305343512 15.765472312703356 86.803053435115 17.32899022801303 88.488549618321 20.45602605863192 C 90.174045801527 23.583061889250814 91.01679389313 25.92833876221498 92.702290076336 29.576547231270357 C 94.387786259542 33.22475570032573 95.230534351145 38.697068403908794 96.916030534351 38.697068403908794 C 98.6015267175586 38.697068403908794 99.4442748091624 34.00651465798241 101.12977099237 32.182410423452765 C 102.815267175574 30.35830618892703 103.65801526717601 31.400651465795878 105.34351145038 29.576547231270357 C 107.02900763358801 27.752442996740502 107.871755725192 25.92833876221839 109.5572519084 23.061889250814332 C 111.242748091604 20.195439739417086 112.085496183206 15.244299674267097 113.77099236641 15.244299674267097 C 115.456488549618 15.244299674267097 116.299236641222 15.244299674267097 117.98473282443 15.244299674267097 C 119.67022900763399 15.244299674267097 120.51297709923601 13.941368078175891 122.19847328244 13.941368078175891 C 123.88396946564801 13.941368078175891 124.726717557252 13.941368078175891 126.41221374046 13.941368078175891 C 128.097709923664 13.941368078175891 128.940458015266 11.335504885993483 130.62595419847 11.335504885993483 C 132.311450381678 11.335504885993483 133.15419847328198 11.335504885993483 134.83969465649 11.335504885993483 C 136.525190839694 11.335504885993483 137.367938931296 15.244299674270216 139.0534351145 17.85016286644951 C 140.738931297708 20.45602605863504 141.581679389312 22.280130293157146 143.26717557252 24.364820846905538 C 144.952671755724 26.449511400649005 145.795419847326 26.970684039089495 147.48091603053 28.27361563517915 C 149.16641221373803 29.57654723127191 150.00916030534202 29.57654723126882 151.69465648855 30.879478827361563 C 153.38015267175402 32.18241042345123 154.222900763356 34.78827361563518 155.90839694656 34.78827361563518 C 157.593893129768 34.78827361563518 158.43664122137199 21.758957654723126 160.12213740458 21.758957654723126 C 161.807633587788 21.758957654723126 162.650381679392 24.364820846905538 164.3358778626 24.364820846905538 C 166.02137404580398 24.364820846905538 166.864122137406 17.85016286644951 168.54961832061 16.547231270358303 C 170.235114503818 15.244299674267097 171.077862595422 16.026058631922744 172.76335877863 15.244299674267097 C 174.448854961834 14.462540716613297 175.29160305343598 13.941368078174346 176.97709923664 12.638436482084689 C 178.662595419848 11.335504885991934 179.50534351145203 8.729641693811072 181.19083969466 8.729641693811072 C 182.87633587786402 8.729641693811072 183.719083969466 11.596091205214508 185.40458015267 13.941368078175891 C 187.09007633587802 16.286644951142847 187.932824427482 17.589576547227836 189.61832061069 20.45602605863192 C 191.303816793894 23.32247557002914 192.146564885496 26.188925081435702 193.8320610687 28.27361563517915 C 195.51755725190802 30.35830618892756 196.360305343512 29.57654723126882 198.04580152672 30.879478827361563 C 199.731297709924 32.18241042345123 200.57404580152598 34.78827361563518 202.25954198473 34.78827361563518 C 203.94503816793798 34.78827361563518 204.78778625954197 34.78827361563518 206.47328244275 34.78827361563518 C 208.15877862595397 34.78827361563518 209.001526717556 32.18241042344967 210.68702290076 29.576547231270357 C 212.37251908396803 26.97068403908485 213.215267175572 23.061889250814332 214.90076335878 21.758957654723126 C 216.58625954198402 20.45602605863192 217.42900763358602 21.758957654723126 219.11450381679 20.45602605863192 C 220.799999999998 19.153094462540714 221.64274809160202 16.807817589579948 223.32824427481 13.941368078175891 C 225.01374045801398 11.074918566778647 225.85648854961602 6.123778501628664 227.54198473282 6.123778501628664 C 229.227480916028 6.123778501628664 230.070229007632 7.16612377849978 231.75572519084 8.729641693811072 C 233.441221374044 10.293159609118671 234.28396946564598 12.11726384365034 235.96946564885 13.941368078175891 C 237.65496183205795 15.765472312705716 238.49770992366197 14.98371335504886 240.18320610687 17.85016286644951 C 241.868702290078 20.71661237785016 242.71145038168197 25.667752442993642 244.39694656489 28.27361563517915 C 246.082442748094 30.879478827358465 246.925190839696 30.879478827361563 248.6106870229 30.879478827361563 C 250.29618320610797 30.879478827361563 251.138931297712 30.097719869707458 252.82442748092 29.576547231270357 C 254.50992366412402 29.055374592834493 255.352671755726 29.576547231270357 257.03816793893 28.27361563517915 C 258.72366412213796 26.970684039087946 259.56641221374196 23.84364820847155 261.25190839695 21.758957654723126 C 262.937404580154 19.67426710097969 263.780152671756 17.85016286644951 265.46564885496 17.85016286644951 C 267.151145038168 17.85016286644951 267.993893129772 17.85016286644951 269.67938931298 17.85016286644951 C 271.364885496184 17.85016286644951 272.207633587786 13.159609120519017 273.89312977099 11.335504885993483 C 275.578625954198 9.511400651463642 276.421374045802 8.729641693811072 278.10687022901 8.729641693811072 C 279.792366412214 8.729641693811072 280.635114503816 12.638436482084689 282.32061068702 12.638436482084689 C 284.006106870228 12.638436482084689 284.848854961832 11.335504885993483 286.53435114504 11.335504885993483 C 288.219847328244 11.335504885993483 289.062595419846 15.244299674270216 290.74809160305 17.85016286644951 C 292.43358778625804 20.45602605863504 293.27633587786204 21.75895765472005 294.96183206107 24.364820846905538 C 296.64732824427404 26.970684039084873 297.490076335876 29.57654723127036 299.17557251908 30.879478827361563 C 300.861068702288 32.182410423452765 301.70381679389203 32.182410423452765 303.3893129771 32.182410423452765 C 305.07480916030397 32.182410423452765 305.917557251906 32.18241042345123 307.60305343511 30.879478827361563 C 309.288549618318 29.57654723126882 310.131297709922 28.013029315960914 311.81679389313 25.667752442996743 C 313.502290076338 23.322475570032573 314.345038167942 20.977198697070556 316.03053435115 19.153094462540714 C 317.716030534354 17.32899022801518 318.558778625956 18.11074918566593 320.24427480916 16.547231270358303 C 321.92977099236793 14.983713355047037 322.77251908397204 13.159609120523292 324.45801526718 11.335504885993483 C 326.143511450384 9.511400651467918 326.986259541986 8.469055374591585 328.67175572519 7.4267100977198695 C 330.35725190839804 6.384364820845658 331.200000000002 6.123778501628664 332.88549618321 6.123778501628664 C 334.570992366414 6.123778501628664 335.41374045801604 12.377850162869926 337.09923664122 15.244299674267097 C 338.78473282442803 18.110749185671228 339.62748091603197 18.8925081433206 341.31297709924 20.45602605863192 C 342.998473282444 22.019543973939495 343.84122137404603 21.758957654724686 345.52671755725 23.061889250814332 C 347.21221374045797 24.364820846907097 348.054961832062 25.407166123776655 349.74045801527 26.970684039087946 C 351.425954198474 28.53420195439555 352.268702290076 30.879478827361563 353.95419847328 30.879478827361563 C 355.63969465648796 30.879478827361563 356.482442748092 29.0553745928348 358.1679389313 28.27361563517915 C 359.853435114504 27.491856677525348 360.696183206106 28.273615635177592 362.38167938931 26.970684039087946 C 364.06717557251807 25.66775244299518 364.909923664122 23.583061889252967 366.59541984733 21.758957654723126 C 368.280916030534 19.934853420197594 369.12366412213606 19.153094462539155 370.80916030534 17.85016286644951 C 372.494656488548 16.547231270356743 373.337404580152 16.80781758957839 375.02290076336 15.244299674267097 C 376.708396946564 13.680781758959496 377.551145038166 11.596091205209879 379.23664122137 10.032573289902277 C 380.922137404578 8.469055374590987 381.764885496182 7.4267100977198695 383.45038167939 7.4267100977198695 C 385.135877862594 7.4267100977198695 385.978625954196 7.4267100977229425 387.6641221374 10.032573289902277 C 389.349618320608 12.638436482087764 390.192366412212 16.807817589576484 391.87786259542 20.45602605863192 C 393.563358778628 24.104234527687236 394.406106870232 25.928338762212213 396.09160305344 28.27361563517915 C 397.777099236644 30.61889250814055 398.619847328246 30.879478827363094 400.30534351145 32.182410423452765 C 401.990839694658 33.485342019545506 402.833587786262 34.78827361563518 404.51908396947 34.78827361563518 C 406.20458015267394 34.78827361563518 407.047328244276 30.61889250814055 408.73282442748 28.27361563517915 C 410.418320610688 25.928338762212213 411.26106870229194 24.364820846907072 412.9465648855 23.061889250814332 C 414.63206106870405 21.758957654724664 415.474809160306 23.061889250814332 417.16030534351 21.758957654723126 C 418.845801526718 20.45602605863192 419.68854961832204 17.589576547233996 421.37404580153 15.244299674267097 C 423.059541984734 12.899022801305655 423.902290076336 11.335504885993483 425.58778625954 10.032573289902277 C 427.2732824427479 8.729641693811072 428.11603053435203 8.729641693811072 429.80152671756 8.729641693811072 C 431.487022900764 8.729641693811072 432.329770992366 8.729641693811072 434.01526717557 8.729641693811072 C 435.70076335877803 8.729641693811072 436.54351145038197 13.941368078175891 438.22900763359 15.244299674267097 C 439.91450381679397 16.547231270358303 440.75725190839603 15.244299674267097 442.4427480916 16.547231270358303 C 444.128244274808 17.85016286644951 444.97099236641196 22.80130293159261 446.65648854962 25.667752442996743 C 448.34198473282396 28.534201954393914 449.184732824426 30.879478827361563 450.87022900763 30.879478827361563 C 452.55572519083796 30.879478827361563 453.39847328244196 28.27361563517915 455.08396946565 28.27361563517915 C 456.769465648854 28.27361563517915 457.612213740456 34.78827361563518 459.29770992366 34.78827361563518 C 460.98320610686807 34.78827361563518 461.825954198472 30.358306188929078 463.51145038168 26.970684039087946 C 465.196946564884 23.58306188925481 466.03969465648606 20.71661237784668 467.72519083969 17.85016286644951 C 469.41068702289806 14.983713355045378 470.253435114502 14.201954397395982 471.93893129771 12.638436482084689 C 473.624427480914 11.074918566777088 474.46717557251606 11.85667752442778 476.15267175572 10.032573289902277 C 477.838167938928 8.208469055372406 478.680916030532 3.517915309446252 480.36641221374 3.517915309446252 C 482.05190839694797 3.517915309446252 482.894656488552 4.560260586317372 484.58015267176 6.123778501628664 C 486.265648854964 7.687296416936264 487.1083969465661 9.51140065146798 488.79389312977 11.335504885993483 C 490.479389312978 13.159609120523355 491.322137404582 12.638436482081612 493.00763358779 15.244299674267097 C 494.693129770994 17.850162866446432 495.53587786259595 22.019543973944096 497.2213740458 24.364820846905538 C 498.906870229008 26.710097719872437 499.749618320612 25.40716612377668 501.43511450382 26.970684039087946 C 503.12061068702405 28.534201954395574 503.963358778626 32.182410423452765 505.64885496183 32.182410423452765 C 507.334351145038 32.182410423452765 508.177099236642 24.364820846905538 509.86259541985 23.061889250814332 C 511.54809160305393 21.758957654723126 512.3908396946559 22.80130293159486 514.07633587786 21.758957654723126 C 515.7618320610679 20.716612377848932 516.6045801526719 19.153094462542295 518.29007633588 17.85016286644951 C 519.975572519084 16.547231270359884 520.818320610686 17.328990228010564 522.50381679389 15.244299674267097 C 524.189312977098 13.15960912051871 525.032061068702 9.771986970686807 526.71755725191 7.4267100977198695 C 528.403053435114 5.081433224758469 529.245801526716 3.517915309446252 530.93129770992 3.517915309446252 C 532.616793893128 3.517915309446252 533.459541984732 3.517915309446252 535.14503816794 4.820846905537458 C 536.830534351144 6.123778501628664 537.673282442746 8.729641693814148 539.35877862595 11.335504885993483 C 541.044274809158 13.94136807817897 541.887022900762 14.72312703582703 543.57251908397 17.85016286644951 C 545.2580152671741 20.977198697064818 546.100763358776 26.970684039087946 547.78625954198 26.970684039087946 C 549.471755725188 26.970684039087946 552 26.970684039087946 552 26.970684039087946 L 552 40 C 552 40 549.471755725188 40 547.78625954198 40 C 546.100763358776 40 545.2580152671741 40 543.57251908397 40 C 541.887022900762 40 541.044274809158 40 539.35877862595 40 C 537.673282442746 40 536.830534351144 40 535.14503816794 40 C 533.459541984732 40 532.616793893128 40 530.93129770992 40 C 529.245801526716 40 528.403053435114 40 526.71755725191 40 C 525.032061068702 40 524.189312977098 40 522.50381679389 40 C 520.818320610686 40 519.975572519084 40 518.29007633588 40 C 516.6045801526719 40 515.7618320610679 40 514.07633587786 40 C 512.3908396946559 40 511.54809160305393 40 509.86259541985 40 C 508.177099236642 40 507.334351145038 40 505.64885496183 40 C 503.963358778626 40 503.12061068702405 40 501.43511450382 40 C 499.749618320612 40 498.906870229008 40 497.2213740458 40 C 495.53587786259595 40 494.693129770994 40 493.00763358779 40 C 491.322137404582 40 490.479389312978 40 488.79389312977 40 C 487.1083969465661 40 486.265648854964 40 484.58015267176 40 C 482.894656488552 40 482.05190839694797 40 480.36641221374 40 C 478.680916030532 40 477.838167938928 40 476.15267175572 40 C 474.46717557251606 40 473.624427480914 40 471.93893129771 40 C 470.253435114502 40 469.41068702289806 40 467.72519083969 40 C 466.03969465648606 40 465.196946564884 40 463.51145038168 40 C 461.825954198472 40 460.98320610686807 40 459.29770992366 40 C 457.612213740456 40 456.769465648854 40 455.08396946565 40 C 453.39847328244196 40 452.55572519083796 40 450.87022900763 40 C 449.184732824426 40 448.34198473282396 40 446.65648854962 40 C 444.97099236641196 40 444.128244274808 40 442.4427480916 40 C 440.75725190839603 40 439.91450381679397 40 438.22900763359 40 C 436.54351145038197 40 435.70076335877803 40 434.01526717557 40 C 432.329770992366 40 431.487022900764 40 429.80152671756 40 C 428.11603053435203 40 427.2732824427479 40 425.58778625954 40 C 423.902290076336 40 423.059541984734 40 421.37404580153 40 C 419.68854961832204 40 418.845801526718 40 417.16030534351 40 C 415.474809160306 40 414.63206106870405 40 412.9465648855 40 C 411.26106870229194 40 410.418320610688 40 408.73282442748 40 C 407.047328244276 40 406.20458015267394 40 404.51908396947 40 C 402.833587786262 40 401.990839694658 40 400.30534351145 40 C 398.619847328246 40 397.777099236644 40 396.09160305344 40 C 394.406106870232 40 393.563358778628 40 391.87786259542 40 C 390.192366412212 40 389.349618320608 40 387.6641221374 40 C 385.978625954196 40 385.135877862594 40 383.45038167939 40 C 381.764885496182 40 380.922137404578 40 379.23664122137 40 C 377.551145038166 40 376.708396946564 40 375.02290076336 40 C 373.337404580152 40 372.494656488548 40 370.80916030534 40 C 369.12366412213606 40 368.280916030534 40 366.59541984733 40 C 364.909923664122 40 364.06717557251807 40 362.38167938931 40 C 360.696183206106 40 359.853435114504 40 358.1679389313 40 C 356.482442748092 40 355.63969465648796 40 353.95419847328 40 C 352.268702290076 40 351.425954198474 40 349.74045801527 40 C 348.054961832062 40 347.21221374045797 40 345.52671755725 40 C 343.84122137404603 40 342.998473282444 40 341.31297709924 40 C 339.62748091603197 40 338.78473282442803 40 337.09923664122 40 C 335.41374045801604 40 334.570992366414 40 332.88549618321 40 C 331.200000000002 40 330.35725190839804 40 328.67175572519 40 C 326.986259541986 40 326.143511450384 40 324.45801526718 40 C 322.77251908397204 40 321.92977099236793 40 320.24427480916 40 C 318.558778625956 40 317.716030534354 40 316.03053435115 40 C 314.345038167942 40 313.502290076338 40 311.81679389313 40 C 310.131297709922 40 309.288549618318 40 307.60305343511 40 C 305.917557251906 40 305.07480916030397 40 303.3893129771 40 C 301.70381679389203 40 300.861068702288 40 299.17557251908 40 C 297.490076335876 40 296.64732824427404 40 294.96183206107 40 C 293.27633587786204 40 292.43358778625804 40 290.74809160305 40 C 289.062595419846 40 288.219847328244 40 286.53435114504 40 C 284.848854961832 40 284.006106870228 40 282.32061068702 40 C 280.635114503816 40 279.792366412214 40 278.10687022901 40 C 276.421374045802 40 275.578625954198 40 273.89312977099 40 C 272.207633587786 40 271.364885496184 40 269.67938931298 40 C 267.993893129772 40 267.151145038168 40 265.46564885496 40 C 263.780152671756 40 262.937404580154 40 261.25190839695 40 C 259.56641221374196 40 258.72366412213796 40 257.03816793893 40 C 255.352671755726 40 254.50992366412402 40 252.82442748092 40 C 251.138931297712 40 250.29618320610797 40 248.6106870229 40 C 246.925190839696 40 246.082442748094 40 244.39694656489 40 C 242.71145038168197 40 241.868702290078 40 240.18320610687 40 C 238.49770992366197 40 237.65496183205795 40 235.96946564885 40 C 234.28396946564598 40 233.441221374044 40 231.75572519084 40 C 230.070229007632 40 229.227480916028 40 227.54198473282 40 C 225.85648854961602 40 225.01374045801398 40 223.32824427481 40 C 221.64274809160202 40 220.799999999998 40 219.11450381679 40 C 217.42900763358602 40 216.58625954198402 40 214.90076335878 40 C 213.215267175572 40 212.37251908396803 40 210.68702290076 40 C 209.001526717556 40 208.15877862595397 40 206.47328244275 40 C 204.78778625954197 40 203.94503816793798 40 202.25954198473 40 C 200.57404580152598 40 199.731297709924 40 198.04580152672 40 C 196.360305343512 40 195.51755725190802 40 193.8320610687 40 C 192.146564885496 40 191.303816793894 40 189.61832061069 40 C 187.932824427482 40 187.09007633587802 40 185.40458015267 40 C 183.719083969466 40 182.87633587786402 40 181.19083969466 40 C 179.50534351145203 40 178.662595419848 40 176.97709923664 40 C 175.29160305343598 40 174.448854961834 40 172.76335877863 40 C 171.077862595422 40 170.235114503818 40 168.54961832061 40 C 166.864122137406 40 166.02137404580398 40 164.3358778626 40 C 162.650381679392 40 161.807633587788 40 160.12213740458 40 C 158.43664122137199 40 157.593893129768 40 155.90839694656 40 C 154.222900763356 40 153.38015267175402 40 151.69465648855 40 C 150.00916030534202 40 149.16641221373803 40 147.48091603053 40 C 145.795419847326 40 144.952671755724 40 143.26717557252 40 C 141.581679389312 40 140.738931297708 40 139.0534351145 40 C 137.367938931296 40 136.525190839694 40 134.83969465649 40 C 133.15419847328198 40 132.311450381678 40 130.62595419847 40 C 128.940458015266 40 128.097709923664 40 126.41221374046 40 C 124.726717557252 40 123.88396946564801 40 122.19847328244 40 C 120.51297709923601 40 119.67022900763399 40 117.98473282443 40 C 116.299236641222 40 115.456488549618 40 113.77099236641 40 C 112.085496183206 40 111.242748091604 40 109.5572519084 40 C 107.871755725192 40 107.02900763358801 40 105.34351145038 40 C 103.65801526717601 40 102.815267175574 40 101.12977099237 40 C 99.4442748091624 40 98.6015267175586 40 96.916030534351 40 C 95.230534351145 40 94.387786259542 40 92.702290076336 40 C 91.01679389313 40 90.174045801527 40 88.488549618321 40 C 86.803053435115 40 85.960305343512 40 84.274809160306 40 C 82.5893129770996 40 81.7465648854964 40 80.06106870229 40 C 78.37557251908399 40 77.532824427481 40 75.847328244275 40 C 74.16183206106861 40 73.3190839694654 40 71.633587786259 40 C 69.948091603053 40 69.10534351145 40 67.419847328244 40 C 65.734351145038 40 64.891603053435 40 63.206106870229 40 C 61.520610687022995 40 60.67786259542 40 58.992366412214 40 C 57.3068702290076 40 56.4641221374044 40 54.778625954198 40 C 53.09312977099201 40 52.250381679389 40 50.564885496183 40 C 48.879389312977004 40 48.036641221374 40 46.351145038168 40 C 44.665648854962 40 43.822900763359 40 42.137404580153 40 C 40.451908396947 40 39.609160305344 40 37.923664122138 40 C 36.238167938931596 40 35.3954198473284 40 33.709923664122 40 C 32.024427480916 40 31.181679389313 40 29.496183206107 40 C 27.810687022900602 40 26.967938931297397 40 25.282442748091 40 C 23.596946564885002 40 22.754198473282 40 21.068702290076 40 C 19.38320610687 40 18.540458015267 40 16.854961832061 40 C 15.169465648855 40 14.326717557252 40 12.641221374046 40 C 10.9557251908398 40 10.1129770992367 40 8.4274809160305 40 C 6.74198473282438 40 5.89923664122132 40 4.2137404580152 40 C 2.52824427480912 40 0 40 0 40" class="highcharts-area" data-z-index="0"></path><path fill="none" d="M 0 36.09120521172638 C 0 36.09120521172638 2.52824427480912 32.96416938110747 4.2137404580152 30.879478827361563 C 5.89923664122132 28.79478827361561 6.74198473282438 28.273615635179095 8.4274809160305 25.667752442996743 C 10.1129770992367 23.06188925081427 10.9557251908398 19.93485342019556 12.641221374046 17.85016286644951 C 14.326717557252 15.765472312703702 15.169465648855 16.28664495114006 16.854961832061 15.244299674267097 C 18.540458015267 14.201954397394132 19.38320610687 13.941368078175897 21.068702290076 12.638436482084689 C 22.754198473282 11.335504885993485 23.596946564885002 9.771986970683914 25.282442748091 8.729641693811072 C 26.967938931297397 7.6872964169379845 27.810687022900602 7.4267100977198695 29.496183206107 7.4267100977198695 C 31.181679389313 7.4267100977198695 32.024427480916 10.293159609120798 33.709923664122 12.638436482084689 C 35.3954198473284 14.983713355049137 36.238167938931596 16.807817589576263 37.923664122138 19.153094462540714 C 39.609160305344 21.498371335504604 40.451908396947 21.75895765472312 42.137404580153 24.364820846905538 C 43.822900763359 26.970684039087942 44.665648854962 29.576547231270357 46.351145038168 32.182410423452765 C 48.036641221374 34.78827361563518 48.879389312977004 37.39413680781759 50.564885496183 37.39413680781759 C 52.250381679389 37.39413680781759 53.09312977099201 34.527687296416644 54.778625954198 32.182410423452765 C 56.4641221374044 29.837133550488307 57.3068702290076 28.273615635179457 58.992366412214 25.667752442996743 C 60.67786259542 23.061889250814637 61.520610687022995 19.153094462540714 63.206106870229 19.153094462540714 C 64.891603053435 19.153094462540714 65.734351145038 19.153094462540714 67.419847328244 19.153094462540714 C 69.10534351145 19.153094462540714 69.948091603053 13.941368078175588 71.633587786259 11.335504885993483 C 73.3190839694654 8.729641693810766 74.16183206106861 6.123778501628664 75.847328244275 6.123778501628664 C 77.532824427481 6.123778501628664 78.37557251908399 9.771986970684216 80.06106870229 11.335504885993483 C 81.7465648854964 12.899022801303108 82.5893129770996 12.117263843647981 84.274809160306 13.941368078175891 C 85.960305343512 15.765472312703356 86.803053435115 17.32899022801303 88.488549618321 20.45602605863192 C 90.174045801527 23.583061889250814 91.01679389313 25.92833876221498 92.702290076336 29.576547231270357 C 94.387786259542 33.22475570032573 95.230534351145 38.697068403908794 96.916030534351 38.697068403908794 C 98.6015267175586 38.697068403908794 99.4442748091624 34.00651465798241 101.12977099237 32.182410423452765 C 102.815267175574 30.35830618892703 103.65801526717601 31.400651465795878 105.34351145038 29.576547231270357 C 107.02900763358801 27.752442996740502 107.871755725192 25.92833876221839 109.5572519084 23.061889250814332 C 111.242748091604 20.195439739417086 112.085496183206 15.244299674267097 113.77099236641 15.244299674267097 C 115.456488549618 15.244299674267097 116.299236641222 15.244299674267097 117.98473282443 15.244299674267097 C 119.67022900763399 15.244299674267097 120.51297709923601 13.941368078175891 122.19847328244 13.941368078175891 C 123.88396946564801 13.941368078175891 124.726717557252 13.941368078175891 126.41221374046 13.941368078175891 C 128.097709923664 13.941368078175891 128.940458015266 11.335504885993483 130.62595419847 11.335504885993483 C 132.311450381678 11.335504885993483 133.15419847328198 11.335504885993483 134.83969465649 11.335504885993483 C 136.525190839694 11.335504885993483 137.367938931296 15.244299674270216 139.0534351145 17.85016286644951 C 140.738931297708 20.45602605863504 141.581679389312 22.280130293157146 143.26717557252 24.364820846905538 C 144.952671755724 26.449511400649005 145.795419847326 26.970684039089495 147.48091603053 28.27361563517915 C 149.16641221373803 29.57654723127191 150.00916030534202 29.57654723126882 151.69465648855 30.879478827361563 C 153.38015267175402 32.18241042345123 154.222900763356 34.78827361563518 155.90839694656 34.78827361563518 C 157.593893129768 34.78827361563518 158.43664122137199 21.758957654723126 160.12213740458 21.758957654723126 C 161.807633587788 21.758957654723126 162.650381679392 24.364820846905538 164.3358778626 24.364820846905538 C 166.02137404580398 24.364820846905538 166.864122137406 17.85016286644951 168.54961832061 16.547231270358303 C 170.235114503818 15.244299674267097 171.077862595422 16.026058631922744 172.76335877863 15.244299674267097 C 174.448854961834 14.462540716613297 175.29160305343598 13.941368078174346 176.97709923664 12.638436482084689 C 178.662595419848 11.335504885991934 179.50534351145203 8.729641693811072 181.19083969466 8.729641693811072 C 182.87633587786402 8.729641693811072 183.719083969466 11.596091205214508 185.40458015267 13.941368078175891 C 187.09007633587802 16.286644951142847 187.932824427482 17.589576547227836 189.61832061069 20.45602605863192 C 191.303816793894 23.32247557002914 192.146564885496 26.188925081435702 193.8320610687 28.27361563517915 C 195.51755725190802 30.35830618892756 196.360305343512 29.57654723126882 198.04580152672 30.879478827361563 C 199.731297709924 32.18241042345123 200.57404580152598 34.78827361563518 202.25954198473 34.78827361563518 C 203.94503816793798 34.78827361563518 204.78778625954197 34.78827361563518 206.47328244275 34.78827361563518 C 208.15877862595397 34.78827361563518 209.001526717556 32.18241042344967 210.68702290076 29.576547231270357 C 212.37251908396803 26.97068403908485 213.215267175572 23.061889250814332 214.90076335878 21.758957654723126 C 216.58625954198402 20.45602605863192 217.42900763358602 21.758957654723126 219.11450381679 20.45602605863192 C 220.799999999998 19.153094462540714 221.64274809160202 16.807817589579948 223.32824427481 13.941368078175891 C 225.01374045801398 11.074918566778647 225.85648854961602 6.123778501628664 227.54198473282 6.123778501628664 C 229.227480916028 6.123778501628664 230.070229007632 7.16612377849978 231.75572519084 8.729641693811072 C 233.441221374044 10.293159609118671 234.28396946564598 12.11726384365034 235.96946564885 13.941368078175891 C 237.65496183205795 15.765472312705716 238.49770992366197 14.98371335504886 240.18320610687 17.85016286644951 C 241.868702290078 20.71661237785016 242.71145038168197 25.667752442993642 244.39694656489 28.27361563517915 C 246.082442748094 30.879478827358465 246.925190839696 30.879478827361563 248.6106870229 30.879478827361563 C 250.29618320610797 30.879478827361563 251.138931297712 30.097719869707458 252.82442748092 29.576547231270357 C 254.50992366412402 29.055374592834493 255.352671755726 29.576547231270357 257.03816793893 28.27361563517915 C 258.72366412213796 26.970684039087946 259.56641221374196 23.84364820847155 261.25190839695 21.758957654723126 C 262.937404580154 19.67426710097969 263.780152671756 17.85016286644951 265.46564885496 17.85016286644951 C 267.151145038168 17.85016286644951 267.993893129772 17.85016286644951 269.67938931298 17.85016286644951 C 271.364885496184 17.85016286644951 272.207633587786 13.159609120519017 273.89312977099 11.335504885993483 C 275.578625954198 9.511400651463642 276.421374045802 8.729641693811072 278.10687022901 8.729641693811072 C 279.792366412214 8.729641693811072 280.635114503816 12.638436482084689 282.32061068702 12.638436482084689 C 284.006106870228 12.638436482084689 284.848854961832 11.335504885993483 286.53435114504 11.335504885993483 C 288.219847328244 11.335504885993483 289.062595419846 15.244299674270216 290.74809160305 17.85016286644951 C 292.43358778625804 20.45602605863504 293.27633587786204 21.75895765472005 294.96183206107 24.364820846905538 C 296.64732824427404 26.970684039084873 297.490076335876 29.57654723127036 299.17557251908 30.879478827361563 C 300.861068702288 32.182410423452765 301.70381679389203 32.182410423452765 303.3893129771 32.182410423452765 C 305.07480916030397 32.182410423452765 305.917557251906 32.18241042345123 307.60305343511 30.879478827361563 C 309.288549618318 29.57654723126882 310.131297709922 28.013029315960914 311.81679389313 25.667752442996743 C 313.502290076338 23.322475570032573 314.345038167942 20.977198697070556 316.03053435115 19.153094462540714 C 317.716030534354 17.32899022801518 318.558778625956 18.11074918566593 320.24427480916 16.547231270358303 C 321.92977099236793 14.983713355047037 322.77251908397204 13.159609120523292 324.45801526718 11.335504885993483 C 326.143511450384 9.511400651467918 326.986259541986 8.469055374591585 328.67175572519 7.4267100977198695 C 330.35725190839804 6.384364820845658 331.200000000002 6.123778501628664 332.88549618321 6.123778501628664 C 334.570992366414 6.123778501628664 335.41374045801604 12.377850162869926 337.09923664122 15.244299674267097 C 338.78473282442803 18.110749185671228 339.62748091603197 18.8925081433206 341.31297709924 20.45602605863192 C 342.998473282444 22.019543973939495 343.84122137404603 21.758957654724686 345.52671755725 23.061889250814332 C 347.21221374045797 24.364820846907097 348.054961832062 25.407166123776655 349.74045801527 26.970684039087946 C 351.425954198474 28.53420195439555 352.268702290076 30.879478827361563 353.95419847328 30.879478827361563 C 355.63969465648796 30.879478827361563 356.482442748092 29.0553745928348 358.1679389313 28.27361563517915 C 359.853435114504 27.491856677525348 360.696183206106 28.273615635177592 362.38167938931 26.970684039087946 C 364.06717557251807 25.66775244299518 364.909923664122 23.583061889252967 366.59541984733 21.758957654723126 C 368.280916030534 19.934853420197594 369.12366412213606 19.153094462539155 370.80916030534 17.85016286644951 C 372.494656488548 16.547231270356743 373.337404580152 16.80781758957839 375.02290076336 15.244299674267097 C 376.708396946564 13.680781758959496 377.551145038166 11.596091205209879 379.23664122137 10.032573289902277 C 380.922137404578 8.469055374590987 381.764885496182 7.4267100977198695 383.45038167939 7.4267100977198695 C 385.135877862594 7.4267100977198695 385.978625954196 7.4267100977229425 387.6641221374 10.032573289902277 C 389.349618320608 12.638436482087764 390.192366412212 16.807817589576484 391.87786259542 20.45602605863192 C 393.563358778628 24.104234527687236 394.406106870232 25.928338762212213 396.09160305344 28.27361563517915 C 397.777099236644 30.61889250814055 398.619847328246 30.879478827363094 400.30534351145 32.182410423452765 C 401.990839694658 33.485342019545506 402.833587786262 34.78827361563518 404.51908396947 34.78827361563518 C 406.20458015267394 34.78827361563518 407.047328244276 30.61889250814055 408.73282442748 28.27361563517915 C 410.418320610688 25.928338762212213 411.26106870229194 24.364820846907072 412.9465648855 23.061889250814332 C 414.63206106870405 21.758957654724664 415.474809160306 23.061889250814332 417.16030534351 21.758957654723126 C 418.845801526718 20.45602605863192 419.68854961832204 17.589576547233996 421.37404580153 15.244299674267097 C 423.059541984734 12.899022801305655 423.902290076336 11.335504885993483 425.58778625954 10.032573289902277 C 427.2732824427479 8.729641693811072 428.11603053435203 8.729641693811072 429.80152671756 8.729641693811072 C 431.487022900764 8.729641693811072 432.329770992366 8.729641693811072 434.01526717557 8.729641693811072 C 435.70076335877803 8.729641693811072 436.54351145038197 13.941368078175891 438.22900763359 15.244299674267097 C 439.91450381679397 16.547231270358303 440.75725190839603 15.244299674267097 442.4427480916 16.547231270358303 C 444.128244274808 17.85016286644951 444.97099236641196 22.80130293159261 446.65648854962 25.667752442996743 C 448.34198473282396 28.534201954393914 449.184732824426 30.879478827361563 450.87022900763 30.879478827361563 C 452.55572519083796 30.879478827361563 453.39847328244196 28.27361563517915 455.08396946565 28.27361563517915 C 456.769465648854 28.27361563517915 457.612213740456 34.78827361563518 459.29770992366 34.78827361563518 C 460.98320610686807 34.78827361563518 461.825954198472 30.358306188929078 463.51145038168 26.970684039087946 C 465.196946564884 23.58306188925481 466.03969465648606 20.71661237784668 467.72519083969 17.85016286644951 C 469.41068702289806 14.983713355045378 470.253435114502 14.201954397395982 471.93893129771 12.638436482084689 C 473.624427480914 11.074918566777088 474.46717557251606 11.85667752442778 476.15267175572 10.032573289902277 C 477.838167938928 8.208469055372406 478.680916030532 3.517915309446252 480.36641221374 3.517915309446252 C 482.05190839694797 3.517915309446252 482.894656488552 4.560260586317372 484.58015267176 6.123778501628664 C 486.265648854964 7.687296416936264 487.1083969465661 9.51140065146798 488.79389312977 11.335504885993483 C 490.479389312978 13.159609120523355 491.322137404582 12.638436482081612 493.00763358779 15.244299674267097 C 494.693129770994 17.850162866446432 495.53587786259595 22.019543973944096 497.2213740458 24.364820846905538 C 498.906870229008 26.710097719872437 499.749618320612 25.40716612377668 501.43511450382 26.970684039087946 C 503.12061068702405 28.534201954395574 503.963358778626 32.182410423452765 505.64885496183 32.182410423452765 C 507.334351145038 32.182410423452765 508.177099236642 24.364820846905538 509.86259541985 23.061889250814332 C 511.54809160305393 21.758957654723126 512.3908396946559 22.80130293159486 514.07633587786 21.758957654723126 C 515.7618320610679 20.716612377848932 516.6045801526719 19.153094462542295 518.29007633588 17.85016286644951 C 519.975572519084 16.547231270359884 520.818320610686 17.328990228010564 522.50381679389 15.244299674267097 C 524.189312977098 13.15960912051871 525.032061068702 9.771986970686807 526.71755725191 7.4267100977198695 C 528.403053435114 5.081433224758469 529.245801526716 3.517915309446252 530.93129770992 3.517915309446252 C 532.616793893128 3.517915309446252 533.459541984732 3.517915309446252 535.14503816794 4.820846905537458 C 536.830534351144 6.123778501628664 537.673282442746 8.729641693814148 539.35877862595 11.335504885993483 C 541.044274809158 13.94136807817897 541.887022900762 14.72312703582703 543.57251908397 17.85016286644951 C 545.2580152671741 20.977198697064818 546.100763358776 26.970684039087946 547.78625954198 26.970684039087946 C 549.471755725188 26.970684039087946 552 26.970684039087946 552 26.970684039087946" class="highcharts-graph" data-z-index="1" stroke="#FF8533" stroke-width="1" stroke-linejoin="round" stroke-linecap="round"></path></g><g data-z-index="0.1" class="highcharts-markers highcharts-series-3 highcharts-areaspline-series highcharts-navigator-series" transform="translate(24,395) scale(1 1)" clip-path="none"></g></g><text x="300" text-anchor="middle" class="highcharts-title" data-z-index="4" style="color:#333333;font-size:16px;fill:#333333;" y="22"><tspan>Paris</tspan></text><text x="300" text-anchor="middle" class="highcharts-subtitle" data-z-index="4" style="color:#666666;fill:#666666;" y="42"><tspan>Max, Min and Average Temperature (c)</tspan></text><g class="highcharts-axis-labels highcharts-xaxis-labels " data-z-index="7"><text x="63.129770992366" style="color:#666666;cursor:default;font-size:11px;fill:#666666;" text-anchor="middle" transform="translate(0,0)" y="366" opacity="1">2010</text><text x="169.3893129771" style="color:#666666;cursor:default;font-size:11px;fill:#666666;" text-anchor="middle" transform="translate(0,0)" y="366" opacity="1">2012</text><text x="275.64885496183" style="color:#666666;cursor:default;font-size:11px;fill:#666666;" text-anchor="middle" transform="translate(0,0)" y="366" opacity="1">2014</text><text x="381.90839694656" style="color:#666666;cursor:default;font-size:11px;fill:#666666;" text-anchor="middle" transform="translate(0,0)" y="366" opacity="1">2016</text><text x="488.1679389313" style="color:#666666;cursor:default;font-size:11px;fill:#666666;" text-anchor="middle" transform="translate(0,0)" y="366" opacity="1">2018</text></g><g class="highcharts-axis-labels highcharts-xaxis-labels highcharts-navigator-xaxis" data-z-index="7"><text x="77.564885496183" style="color:#999999;cursor:default;font-size:11px;fill:#999999;" text-anchor="start" transform="translate(0,0)" y="431" opacity="1">2010</text><text x="330.3893129771" style="color:#999999;cursor:default;font-size:11px;fill:#999999;" text-anchor="start" transform="translate(0,0)" y="431" opacity="1">2015</text></g><g class="highcharts-axis-labels highcharts-yaxis-labels " data-z-index="7"><text x="590" style="color:#666666;cursor:default;font-size:11px;fill:#666666;" text-anchor="end" transform="translate(0,0)" y="282" opacity="1">0c</text><text x="590" style="color:#666666;cursor:default;font-size:11px;fill:#666666;" text-anchor="end" transform="translate(0,0)" y="218" opacity="1"><tspan>+ 10c</tspan></text><text x="590" style="color:#666666;cursor:default;font-size:11px;fill:#666666;" text-anchor="end" transform="translate(0,0)" y="155" opacity="1"><tspan>+ 20c</tspan></text><text x="0" style="color:#666666;cursor:default;font-size:11px;fill:#666666;" text-anchor="end" transform="translate(0,0)" y="-9999"><tspan>+ 30c</tspan></text><text x="590" style="color:#666666;cursor:default;font-size:11px;fill:#666666;" text-anchor="end" transform="translate(0,0)" y="345" opacity="1">-10c</text></g><g class="highcharts-axis-labels highcharts-yaxis-labels highcharts-navigator-yaxis" data-z-index="7"></g><g class="highcharts-range-selector-group" data-z-index="7" transform="translate(0,48)"><g class="highcharts-range-selector-buttons" transform="translate(0,10)"><text x="10" y="15" style="color:#666666;fill:#666666;">Zoom</text><g class="highcharts-button highcharts-button-disabled" data-z-index="7" transform="translate(48,0)"><rect fill="#f7f7f7" class=" highcharts-button-box" x="0" y="0" width="32" height="22" rx="2" ry="2"></rect><text x="6.6015625" data-z-index="1" style="font-weight:normal;color:#cccccc;cursor:pointer;fill:#cccccc;" y="14">1m</text></g><g class="highcharts-button highcharts-button-disabled" data-z-index="7" transform="translate(85,0)"><rect fill="#f7f7f7" class=" highcharts-button-box" x="0" y="0" width="32" height="22" rx="2" ry="2"></rect><text x="6.6015625" data-z-index="1" style="font-weight:normal;color:#cccccc;cursor:pointer;fill:#cccccc;" y="14">3m</text></g><g class="highcharts-button highcharts-button-normal" data-z-index="7" transform="translate(122,0)"><rect fill="#f7f7f7" class=" highcharts-button-box" x="0" y="0" width="32" height="22" rx="2" ry="2"></rect><text x="6.6015625" data-z-index="1" style="font-weight:normal;color:#333333;cursor:pointer;fill:#333333;" y="14">6m</text></g><g class="highcharts-button highcharts-button-normal" data-z-index="7" transform="translate(159,0)"><rect fill="#f7f7f7" class=" highcharts-button-box" x="0" y="0" width="32" height="22" rx="2" ry="2"></rect><text x="3.96875" data-z-index="1" style="font-weight:normal;color:#333333;cursor:pointer;fill:#333333;" y="14">YTD</text></g><g class="highcharts-button highcharts-button-normal" data-z-index="7" transform="translate(196,0)"><rect fill="#f7f7f7" class=" highcharts-button-box" x="0" y="0" width="32" height="22" rx="2" ry="2"></rect><text x="9.0703125" data-z-index="1" style="font-weight:normal;color:#333333;cursor:pointer;fill:#333333;" y="14">1y</text></g><g class="highcharts-button highcharts-button-pressed" data-z-index="7" transform="translate(233,0)"><rect fill="#e6ebf5" class=" highcharts-button-box" x="0" y="0" width="32" height="22" rx="2" ry="2"></rect><text x="8.390625" data-z-index="1" style="font-weight:bold;color:#000000;cursor:pointer;fill:#000000;" y="14">All</text></g></g></g><g class="highcharts-legend" data-z-index="7" transform="translate(110,459)"><rect fill="none" class="highcharts-legend-box" rx="0" ry="0" x="0" y="0" width="380" height="26" visibility="visible"></rect><g data-z-index="1"><g><g class="highcharts-legend-item highcharts-spline-series highcharts-color-undefined highcharts-series-0" data-z-index="1" transform="translate(8,3)"><path fill="none" d="M 0 11 L 16 11" class="highcharts-graph" stroke="#FF8533" stroke-width="2"></path><text x="21" style="color:#333333;font-size:12px;font-weight:bold;cursor:pointer;fill:#333333;" text-anchor="start" data-z-index="2" y="15"><tspan>Max Temp (c)</tspan></text></g><g class="highcharts-legend-item highcharts-spline-series highcharts-color-undefined highcharts-series-1" data-z-index="1" transform="translate(137.34375,3)"><path fill="none" d="M 0 11 L 16 11" class="highcharts-graph" stroke="#4572A7" stroke-width="2"></path><text x="21" y="15" style="color:#333333;font-size:12px;font-weight:bold;cursor:pointer;fill:#333333;" text-anchor="start" data-z-index="2"><tspan>Min Temp (c)</tspan></text></g><g class="highcharts-legend-item highcharts-spline-series highcharts-color-0 highcharts-series-2" data-z-index="1" transform="translate(264.3125,3)"><path fill="none" d="M 0 11 L 16 11" class="highcharts-graph" stroke="#7cb5ec" stroke-width="2"></path><text x="21" y="15" style="color:#333333;font-size:12px;font-weight:bold;cursor:pointer;fill:#333333;" text-anchor="start" data-z-index="2"><tspan>Avg Temp (c)</tspan></text></g></g></g></g><g class="highcharts-navigator" data-z-index="8" visibility="visible"><rect fill="rgb(0,0,0)" fill-opacity="0" class="highcharts-navigator-mask-outside" x="24" y="395" width="0" height="40"></rect><rect fill="rgb(102,133,194)" fill-opacity="0.3" class="highcharts-navigator-mask-inside" style="cursor:ew-resize;" x="24" y="395" width="552" height="40"></rect><rect fill="rgb(0,0,0)" fill-opacity="0" class="highcharts-navigator-mask-outside" x="576" y="395" width="0" height="40"></rect><path fill="none" class="highcharts-navigator-outline" stroke="#cccccc" stroke-width="1" d="M 10 395.5 L 23.5 395.5 L 23.5 449.5 L 575.5 449.5 L 575.5 395.5 L 590 395.5 M 23 395.5 L 576 395.5"></path><path fill="#f2f2f2" d="M -4.5 0.5 L 3.5 0.5 L 3.5 15.5 L -4.5 15.5 L -4.5 0.5 M -1.5 4 L -1.5 12 M 0.5 4 L 0.5 12" data-z-index="6" class="highcharts-navigator-handle highcharts-navigator-handle-right" stroke="#999999" stroke-width="1" style="cursor:ew-resize;" transform="translate(576,407)"></path><path fill="#f2f2f2" d="M -4.5 0.5 L 3.5 0.5 L 3.5 15.5 L -4.5 15.5 L -4.5 0.5 M -1.5 4 L -1.5 12 M 0.5 4 L 0.5 12" data-z-index="7" class="highcharts-navigator-handle highcharts-navigator-handle-left" stroke="#999999" stroke-width="1" style="cursor:ew-resize;" transform="translate(24,407)"></path></g><text x="590" class="highcharts-credits" text-anchor="end" data-z-index="8" style="cursor:pointer;color:#999999;font-size:9px;fill:#999999;" y="495">WorldWeatherOnline.com</text></svg>